<mxfile host="Electron" modified="2023-04-22T22:02:29.267Z" agent="Mozilla/5.0 (Windows NT 10.0; Win64; x64) AppleWebKit/537.36 (KHTML, like Gecko) draw.io/21.2.1 Chrome/112.0.5615.87 Electron/24.1.2 Safari/537.36" etag="Lz3R3_EF0VasgsCJ9C6c" version="21.2.1" type="device">
  <diagram name="Page-1" id="XBVXGTGzunGdWtacC9Ei">
    <mxGraphModel dx="1182" dy="690" grid="1" gridSize="10" guides="1" tooltips="1" connect="1" arrows="1" fold="1" page="1" pageScale="1" pageWidth="827" pageHeight="1169" math="0" shadow="0">
      <root>
        <mxCell id="0" />
        <mxCell id="1" parent="0" />
        <mxCell id="6_DU9al41cH15KlkLrzg-2" value="Inicializace sluÅ¾eb&lt;br&gt;(Logger, ServiceRunner)" style="rounded=0;whiteSpace=wrap;html=1;" vertex="1" parent="1">
          <mxGeometry x="55" y="150" width="135" height="60" as="geometry" />
        </mxCell>
        <mxCell id="6_DU9al41cH15KlkLrzg-9" style="edgeStyle=orthogonalEdgeStyle;rounded=0;orthogonalLoop=1;jettySize=auto;html=1;" edge="1" parent="1" source="6_DU9al41cH15KlkLrzg-5" target="6_DU9al41cH15KlkLrzg-2">
          <mxGeometry relative="1" as="geometry" />
        </mxCell>
        <mxCell id="6_DU9al41cH15KlkLrzg-5" value="" style="ellipse;whiteSpace=wrap;html=1;aspect=fixed;fillColor=#000000;" vertex="1" parent="1">
          <mxGeometry x="107.5" y="50" width="30" height="30" as="geometry" />
        </mxCell>
      </root>
    </mxGraphModel>
  </diagram>
</mxfile>
